<?xml version="1.0" encoding="iso-8859-1"?>
<!-- Generator: Adobe Illustrator 19.0.0, SVG Export Plug-In . SVG Version: 6.00 Build 0)  -->
<svg version="1.1" id="Layer_1" xmlns="http://www.w3.org/2000/svg" xmlns:xlink="http://www.w3.org/1999/xlink" x="0px" y="0px"
	 viewBox="0 0 511.99 511.99" style="enable-background:new 0 0 511.99 511.99;" xml:space="preserve">
<polygon style="fill:#656D78;" points="499.991,190.012 475.991,146.669 426.647,150.669 393.993,140.669 123.997,130.669 
	100.662,150.669 42.663,150.669 23.335,170.652 11.999,242.011 18.663,318.009 31.999,362.665 83.334,360.665 109.333,371.337 
	392.649,374.665 411.992,366.009 469.319,366.009 489.335,344.665 499.991,303.338 503.334,245.323 "/>
<rect x="139.335" y="180.325" style="fill:#FFCE54;" width="232" height="147.67"/>
<polygon style="fill:#F5F7FA;" points="247.659,233.011 228.331,215.339 204.996,212.339 173.661,227.011 168.996,245.339 
	175.661,269.339 195.66,294.01 227.995,297.01 238.331,280.339 241.995,271.011 216.66,254.151 "/>
<path d="M479.991,138.653h-60.436l-14.234-10.656H106.662l-14.227,10.656H31.999c0,0-31.999,21.968-31.999,117.342
	c0,95.373,31.999,117.342,31.999,117.342h60.436l14.226,10.656H405.32l14.234-10.656h60.437c0,0,31.999-21.969,31.999-117.342
	C511.99,160.621,479.991,138.653,479.991,138.653z M478.569,336.931c-2.859,7.172-5.703,12-7.859,15.062h-51.155h-7.125
	l-5.688,4.266l-8.531,6.391h-14.218c0-5.875-4.781-10.656-10.672-10.656h-21.328c-5.891,0-10.672,4.781-10.672,10.656h-10.672
	c0-5.875-4.766-10.656-10.656-10.656H298.65c-5.875,0-10.655,4.781-10.655,10.656H234.66c0-5.875-4.773-10.656-10.664-10.656
	s-10.672,4.781-10.672,10.656H202.66c0-5.875-4.773-10.656-10.664-10.656s-10.671,4.781-10.671,10.656h-10.664
	c0-5.875-4.773-10.656-10.664-10.656h-21.335c-5.891,0-10.664,4.781-10.664,10.656h-14.227l-8.531-6.391l-5.688-4.266h-7.117H41.272
	c-2.148-3.062-5-7.891-7.859-15.062c-5.516-13.844-12.085-39.093-12.085-80.936c0-41.844,6.57-67.093,12.085-80.937
	c2.859-7.172,5.711-12,7.859-15.062h51.163h7.117l5.688-4.265l8.531-6.391h284.44l8.531,6.391l5.688,4.265h7.125h51.155
	c2.156,3.062,5,7.891,7.859,15.062c5.516,13.844,12.078,39.093,12.078,80.937C490.647,297.838,484.085,323.087,478.569,336.931z"/>
<path d="M437.319,245.339c5.891,0,10.672-4.781,10.672-10.688c0-5.875-4.781-10.656-10.672-10.656s-10.672,4.781-10.672,10.656
	C426.647,240.557,431.429,245.339,437.319,245.339z"/>
<path d="M437.319,266.651c-5.891,0-10.672,4.781-10.672,10.688c0,5.875,4.781,10.656,10.672,10.656s10.672-4.781,10.672-10.656
	C447.991,271.433,443.21,266.651,437.319,266.651z"/>
<path d="M458.647,245.339c-5.875,0-10.656,4.766-10.656,10.656s4.781,10.656,10.656,10.656c5.906,0,10.672-4.766,10.672-10.656
	C469.319,250.105,464.554,245.339,458.647,245.339z"/>
<path d="M415.992,245.339c-5.891,0-10.672,4.766-10.672,10.656s4.781,10.656,10.672,10.656s10.655-4.766,10.655-10.656
	C426.647,250.105,421.883,245.339,415.992,245.339z"/>
<path d="M95.998,245.339H85.326v-10.688c0-5.875-4.773-10.656-10.664-10.656c-5.891,0-10.664,4.781-10.664,10.656v10.688H53.327
	c-5.89,0-10.664,4.766-10.664,10.656s4.773,10.656,10.664,10.656h10.672v10.688c0,5.875,4.773,10.656,10.664,10.656
	c5.89,0,10.664-4.781,10.664-10.656v-10.688h10.672c5.891,0,10.664-4.766,10.664-10.656
	C106.663,250.105,101.889,245.339,95.998,245.339z"/>
<path d="M127.99,341.337h256.003V170.652H127.99V341.337z M149.325,191.996h213.324v127.997H149.325V191.996z"/>
<path d="M265.12,239.276l-5.211-9.312c-2.383-4.266-5.367-8.188-8.852-11.688c-10.078-10.062-23.468-15.624-37.718-15.624
	s-27.648,5.562-37.718,15.624c-10.078,10.078-15.625,23.469-15.625,37.719c0,14.25,5.547,27.641,15.625,37.718
	c10.07,10.062,23.468,15.625,37.718,15.625s27.64-5.562,37.718-15.625c3.484-3.499,6.469-7.421,8.852-11.687l5.219-9.312
	l-29.922-16.719L265.12,239.276z M234.48,280.026c-5.844,5.156-13.281,7.969-21.141,7.969c-8.554,0-16.593-3.328-22.64-9.375
	c-6.046-6.031-9.375-14.078-9.375-22.625c0-8.547,3.328-16.594,9.375-22.625c6.047-6.047,14.086-9.375,22.64-9.375
	c7.867,0,15.297,2.812,21.141,7.969l-43.015,24.031L234.48,280.026z"/>
<path d="M269.784,248.464c-4.164,4.156-4.164,10.906,0,15.078s10.914,4.172,15.086,0c4.156-4.172,4.156-10.922,0-15.078
	C280.698,244.276,273.948,244.276,269.784,248.464z"/>
<path d="M301.775,248.464c-4.156,4.156-4.156,10.906,0,15.078c4.172,4.172,10.922,4.172,15.094,0c4.155-4.172,4.155-10.922,0-15.078
	C312.697,244.276,305.947,244.276,301.775,248.464z"/>
<path d="M333.774,248.464c-4.156,4.156-4.156,10.906,0,15.078c4.172,4.172,10.938,4.172,15.094,0s4.156-10.922,0-15.078
	C344.712,244.276,337.946,244.276,333.774,248.464z"/>
<g>
</g>
<g>
</g>
<g>
</g>
<g>
</g>
<g>
</g>
<g>
</g>
<g>
</g>
<g>
</g>
<g>
</g>
<g>
</g>
<g>
</g>
<g>
</g>
<g>
</g>
<g>
</g>
<g>
</g>
</svg>
